<svg id="Layer_3" data-name="Layer 3" xmlns="http://www.w3.org/2000/svg" viewBox="0 0 1280 583.7"><defs><style>.cls-1{fill:#2496e2;}</style></defs><path class="cls-1" d="M1280,179.3q0,53.65-15.93,90.24T1223.57,327q-24.54,20.86-49.91,27.63-34.48,8.36-99.84,8.35a41.35,41.35,0,0,0-41.34,41.35v138a41.36,41.36,0,0,1-41.36,41.36h-35a41.58,41.58,0,0,1-6.45-.51H914.94l.14.33h-85.5a89.68,89.68,0,0,1-82.25-53.95L683,381.47c-7.51-17.29-26.26-28.71-47.16-28.71H526.94c-21.22,0-40.17,11.75-47.46,29.41L420.94,524c-14.65,35.76-52.95,59.57-95.85,59.57H255.82l.15-.38H89.84A89.26,89.26,0,0,1,32.48,562.4Q20.77,549,10.16,534.64a89.28,89.28,0,0,1-10-41.15V148.76c-.11-1.18-.17-2.37-.17-3.57V14.81a14.92,14.92,0,0,1,.07-1.5A14.66,14.66,0,0,1,14.65.15S37.75.21,39,.35h78.16a14.67,14.67,0,0,1,14.58,13.17,14.86,14.86,0,0,1,.07,1.49V427.72a44.84,44.84,0,0,0,44.84,44.83h98.59a44.84,44.84,0,0,0,41.05-26.81L486.13,59C501.57,23.85,539.72.72,582.21.72A112.35,112.35,0,0,1,640,16.44c16.7,10,30.1,24.39,37.94,41.74L859.2,459.72a22.42,22.42,0,0,0,20.43,13.19h12.75a22.42,22.42,0,0,0,22.42-22.42V89.66A89.66,89.66,0,0,1,1004.45,0h64.82q87.8,0,114.47,8.75,41,13.13,68.62,57.05T1280,179.3Z"/></svg>