<svg id="Layer_3" data-name="Layer 3" xmlns="http://www.w3.org/2000/svg" viewBox="0 0 1280 904.84"><defs></defs><path class="fill-primary" d="M1280,168.67q0,50.47-15,84.9t-38.09,54q-23.1,19.63-47,26-32.45,7.86-93.93,7.86a38.89,38.89,0,0,0-38.89,38.9V510.2a38.91,38.91,0,0,1-38.91,38.9h-32.9a39.15,39.15,0,0,1-6.07-.47H936.58l.13.3H856.28a84.33,84.33,0,0,1-77.37-50.75L718.4,358.86c-7.07-16.27-24.71-27-44.37-27H571.58c-20,0-37.79,11-44.65,27.67L471.86,492.89c-13.78,33.64-49.81,56-90.17,56H316.52l.15-.35H160.38a84,84,0,0,1-54-19.52q-11-12.62-21-26.11A84,84,0,0,1,76,464.24V139.94c-.11-1.11-.16-2.22-.16-3.36V13.93a13,13,0,0,1,.07-1.4A13.79,13.79,0,0,1,89.65.14s21.73.06,22.93.19h73.53a13.8,13.8,0,0,1,13.71,12.39,13.13,13.13,0,0,1,.07,1.4V402.36a42.19,42.19,0,0,0,42.18,42.18h92.74a42.18,42.18,0,0,0,38.62-25.22L533.19,55.5C547.71,22.44,583.6.68,623.57.68a105.6,105.6,0,0,1,54.37,14.79c15.72,9.43,28.32,22.94,35.69,39.26L884.15,432.47a21.05,21.05,0,0,0,19.21,12.41h12a21.1,21.1,0,0,0,21.09-21.1V84.35A84.35,84.35,0,0,1,1020.78,0h61q82.59,0,107.68,8.23Q1228,20.58,1254,61.9T1280,168.67Z"/><path class="fill-foreground" d="M65.34,897.21A12.61,12.61,0,0,1,62,903a8.43,8.43,0,0,1-5.72,1.82H6.72c-4.48,0-6.72-1.64-6.72-4.9a6.93,6.93,0,0,1,.54-2.73L78.22,653.83a12.46,12.46,0,0,1,3.54-5.9,8.88,8.88,0,0,1,5.9-1.91h59.17c2.3,0,3.75.55,4.36,1.64a19,19,0,0,1,1.45,6.17L167,810.28l80.76-156.45a27.88,27.88,0,0,1,4.27-6.17,7.26,7.26,0,0,1,5.17-1.64H320q3.27,0,4.63,1.46a6.18,6.18,0,0,1,1.36,4.35l-.18,2L300,897.21a7.78,7.78,0,0,1-2.81,5.72,9.89,9.89,0,0,1-6.26,1.91H241.39q-3.81,0-5.17-1.91c-.91-1.27-1.24-3.17-1-5.72L250.1,760.55l-69.51,136.3q-2.73,4.9-4.63,6.44a8.61,8.61,0,0,1-5.53,1.55h-43.2c-2.54,0-4.3-.55-5.26-1.64s-1.52-3.2-1.64-6.35L110,757.1Z"/><path class="fill-foreground" d="M406.19,646H579.51q6.18,0,6.18,5.27a15.82,15.82,0,0,1-.37,2.54l-9.44,44.65q-1.62,7.62-9.25,7.62H453l-9.07,43h86.21q7.26,0,7.26,5.63a16.69,16.69,0,0,1-.37,2.36L529.24,793q-1.63,7.62-10,7.62H433.05l-9.62,44.46H540.31q6.54,0,6.54,5.63a8.59,8.59,0,0,1-.19,2L537,897.21q-1.62,7.63-9.25,7.63H351.19q-6.53,0-6.53-5.27a16.31,16.31,0,0,1,.36-2.36l51.73-243.38Q398.39,646,406.19,646Z"/><path class="fill-foreground" d="M638.5,646h84a108.6,108.6,0,0,1,54.63,14.25A106.66,106.66,0,0,1,817,699.75q14.79,25.23,14.79,56.8a143.33,143.33,0,0,1-30,86.49,160.75,160.75,0,0,1-126,61.8H583.5q-6.53,0-6.53-5.27a16.31,16.31,0,0,1,.36-2.36l51.73-243.38Q630.69,646,638.5,646ZM764.27,761.27a55.69,55.69,0,0,0-6.8-27.49,48.43,48.43,0,0,0-19.24-19.15q-12.43-6.9-29-6.9H685l-28.68,135.4H680.6a77.79,77.79,0,0,0,36.48-9.08,89.81,89.81,0,0,0,29.59-24.59,83,83,0,0,0,16.15-33.85A78.62,78.62,0,0,0,764.27,761.27Z"/><path class="fill-foreground" d="M911.28,646h52.09q6.17,0,6.17,5.27a15.46,15.46,0,0,1-.36,2.54L917.45,897.21q-1.63,7.63-9.07,7.63H856.29q-6.54,0-6.54-5.27a15.44,15.44,0,0,1,.37-2.36l51.72-243.38Q903.47,646,911.28,646Z"/><path class="fill-foreground" d="M1110.38,646H1153q7.44,0,8.71,7.81l43.38,243.38a8.8,8.8,0,0,1,.18,2q0,5.63-6.53,5.63h-50.09q-7.82,0-8.9-7.63l-4.9-34.12h-95.1l-19.06,34.12q-4,7.63-12,7.63H955q-5.09,0-5.08-3.27a9.31,9.31,0,0,1,1.63-4.36l146.29-243.38Q1102.39,646,1110.38,646Zm16.52,161-11.26-79.13L1071.36,807Z"/></svg>
